<svg xmlns="http://www.w3.org/2000/svg" viewBox="0 0 640 440"><rect width="640" height="440" fill="#fff1e6"/><rect x="60" y="50" width="520" height="340" rx="14" fill="#fff" stroke="#1c0b2e" stroke-opacity=".25" stroke-width="2"/>
<rect x="60" y="50" width="520" height="34" rx="14" fill="#1c0b2e" fill-opacity=".9"/><circle cx="80" cy="67" r="5" fill="#e4572e"/><circle cx="96" cy="67" r="5" fill="#fff" fill-opacity=".6"/><circle cx="112" cy="67" r="5" fill="#fff" fill-opacity=".3"/>
<rect x="84" y="104" width="120" height="10" rx="5" fill="#1c0b2e"/><rect x="380" y="104" width="60" height="10" rx="5" fill="#1c0b2e" fill-opacity=".3"/><rect x="456" y="100" width="100" height="18" rx="9" fill="#e4572e"/>
<rect x="84" y="146" width="250" height="26" rx="6" fill="#1c0b2e"/><rect x="84" y="182" width="200" height="26" rx="6" fill="#1c0b2e"/>
<rect x="84" y="226" width="230" height="8" rx="4" fill="#1c0b2e" fill-opacity=".35"/><rect x="84" y="242" width="190" height="8" rx="4" fill="#1c0b2e" fill-opacity=".35"/>
<rect x="84" y="270" width="96" height="28" rx="14" fill="#e4572e"/>
<rect x="364" y="140" width="192" height="170" rx="12" fill="#e4572e" fill-opacity=".9"/><circle cx="460" cy="225" r="42" fill="#fff" fill-opacity=".85"/>
<rect x="84" y="330" width="140" height="44" rx="8" fill="#fff1e6"/><rect x="238" y="330" width="140" height="44" rx="8" fill="#fff1e6"/><rect x="392" y="330" width="164" height="44" rx="8" fill="#fff1e6"/></svg>